<svg width="185" height="190" fill="none" xmlns="http://www.w3.org/2000/svg"><path d="M128.85 15.033a.971.971 0 00-.3-1.364l-7.65-4.794a1.03 1.03 0 00-1.4.299.971.971 0 00.301 1.364l6.799 4.261-4.396 6.654a.971.971 0 00.3 1.364 1.03 1.03 0 001.4-.299l4.946-7.485zM64.947 140.647c-13.428-34.566-12.002-62.749-.123-83.798 11.883-21.057 34.337-35.176 63.388-41.384l-.424-1.93c-29.45 6.293-52.494 20.673-64.737 42.367-12.246 21.7-13.569 50.518.003 85.452l1.893-.707z" fill="#07ADEE"/><circle r="17" transform="matrix(.96815 .25038 -.2744 .96161 72.126 155.816)" fill="#fff" stroke="#07ADEE" stroke-width="2"/><circle r="11.829" transform="matrix(.96815 .25038 -.2744 .96161 72.126 155.816)" fill="#07ADEE"/><circle r="2.571" transform="matrix(.96815 .25038 -.2744 .96161 72.126 155.816)" fill="#fff"/></svg>