<svg width="185" height="190" viewBox="0 0 185 190" fill="none" xmlns="http://www.w3.org/2000/svg">
<path d="M128.85 15.0329C129.154 14.5736 129.019 13.9627 128.55 13.6686L120.9 8.87456C120.431 8.58038 119.804 8.71427 119.5 9.17362C119.197 9.63296 119.331 10.2438 119.801 10.538L126.6 14.7993L122.204 21.4531C121.9 21.9124 122.035 22.5233 122.504 22.8175C122.973 23.1117 123.6 22.9778 123.904 22.5184L128.85 15.0329ZM64.947 140.647C51.5185 106.081 52.9451 77.8981 64.8238 56.8487C76.7065 35.7922 99.1614 21.6725 128.212 15.465L127.788 13.5355C98.3386 19.828 75.2936 34.2082 63.0515 55.9017C50.8053 77.6023 49.4822 106.42 63.0537 141.354L64.947 140.647Z" fill="#07ADEE"/>
<circle r="17" transform="matrix(0.968149 0.250376 -0.274403 0.961615 72.1256 155.816)" fill="white" stroke="#07ADEE" stroke-width="2"/>
<circle r="11.8286" transform="matrix(0.968149 0.250376 -0.274403 0.961615 72.1255 155.816)" fill="#07ADEE"/>
<circle r="2.57143" transform="matrix(0.968149 0.250376 -0.274403 0.961615 72.1255 155.816)" fill="white"/>
</svg>
