<svg width="22" height="20" viewBox="0 0 22 20" fill="none" xmlns="http://www.w3.org/2000/svg">
<path d="M20.996 1.99806V7.99806M20.996 7.99806H14.996M20.996 7.99806L16.366 3.63806C14.9866 2.2578 13.196 1.36325 11.2639 1.0892C9.3319 0.815161 7.36314 1.17648 5.65433 2.1187C3.94551 3.06092 2.58922 4.53301 1.78984 6.31313C0.990451 8.09325 0.791281 10.085 1.22234 11.9881C1.6534 13.8913 2.69133 15.6028 4.17973 16.8647C5.66813 18.1267 7.52636 18.8707 9.47439 18.9846C11.4224 19.0986 13.3547 18.5764 14.9801 17.4966C16.6055 16.4168 17.8359 14.838 18.486 12.9981" stroke="#CCCCCC" stroke-width="2" stroke-linecap="round" stroke-linejoin="round"/>
</svg>
